<svg width="57" height="48" viewBox="0 0 57 48" fill="none" xmlns="http://www.w3.org/2000/svg">
<g clip-path="url(#clip0_2964_6630)">
<path d="M17.5844 0H38.6541C38.6541 3.90312 35.49 7.06722 31.5868 7.06722H17.5844V0Z" fill="url(#paint0_linear_2964_6630)"/>
<path d="M17.5844 19.8311C17.5844 15.2045 21.335 11.454 25.9615 11.454V29.0002H17.5844V19.8311Z" fill="#0A0929"/>
<path d="M18 18C18 14.134 21.134 11 25 11H37V18H18Z" fill="#0A0929"/>
<rect x="17.5844" y="22.176" width="21.8312" height="6.82352" fill="#0A0929"/>
<path d="M6.82227 41.9963C7.10742 41.9963 7.31055 42.1115 7.43164 42.342C7.55273 42.5724 7.61328 42.9123 7.61328 43.3615C7.61328 43.8107 7.58203 44.0627 7.51953 44.1174C6.13672 44.0588 4.86914 44.0256 3.7168 44.0178C2.56836 44.0099 1.83203 44.0041 1.50781 44.0002C1.62109 43.0666 1.67773 42.0353 1.67773 40.9064V37.1096C1.67773 36.7697 1.625 36.551 1.51953 36.4533C1.47266 36.4103 1.4043 36.3732 1.31445 36.342C1.25586 36.2639 1.22656 36.1389 1.22656 35.967C1.22656 35.7912 1.23242 35.6682 1.24414 35.5978C1.5918 35.5939 2.08008 35.59 2.70898 35.5861C3.33789 35.5822 3.82422 35.5783 4.16797 35.5744C5.13281 35.5627 6.25 35.5314 7.51953 35.4807C7.58203 35.5353 7.61328 35.7873 7.61328 36.2365C7.61328 36.6857 7.55273 37.0256 7.43164 37.256C7.31055 37.4865 7.08398 37.6017 6.75195 37.6017C6.41992 37.6017 6.1875 37.4982 6.05469 37.2912V36.5822C4.91406 36.5275 4.00586 36.5002 3.33008 36.5002C3.42773 36.9299 3.47656 37.4572 3.47656 38.0822C3.47656 38.1291 3.47656 38.174 3.47656 38.217V39.3068L5.99609 39.1779C6.05859 39.2521 6.08984 39.4025 6.08984 39.6291C6.08984 39.8517 6.07031 40.0803 6.03125 40.3146C5.81641 40.3459 5.50977 40.3615 5.11133 40.3615C4.7168 40.3615 4.17188 40.3224 3.47656 40.2443V41.3869C3.47656 41.4299 3.47656 41.4748 3.47656 41.5217C3.47656 42.1506 3.42773 42.676 3.33008 43.0978C4.00586 43.0978 4.91406 43.0705 6.05469 43.0158V42.3068C6.12109 42.1779 6.27344 42.0861 6.51172 42.0314C6.60547 42.008 6.70898 41.9963 6.82227 41.9963ZM13.6515 37.631C14.3859 37.631 14.753 37.9826 14.753 38.6857C14.753 39.2287 14.4679 39.9728 13.8976 40.9182C13.1632 42.133 12.6007 43.2053 12.2101 44.1349C12.0695 44.1896 11.9132 44.217 11.7413 44.217C11.5695 44.217 11.4015 44.1838 11.2374 44.1174C11.0734 44.051 10.9601 43.9767 10.8976 43.8947C10.839 43.8127 10.7062 43.5158 10.4991 43.0041C10.296 42.4924 10.0812 41.9572 9.85461 41.3986C9.63195 40.84 9.38195 40.301 9.10461 39.7814C8.82727 39.2619 8.59484 38.9435 8.40734 38.8264C8.34484 38.7873 8.15734 38.756 7.84484 38.7326C7.84094 38.7014 7.83508 38.6682 7.82727 38.633C7.81945 38.5939 7.81359 38.5646 7.80969 38.5451C7.79797 38.4631 7.79797 38.3889 7.80969 38.3224C8.37609 38.006 9.01086 37.8478 9.71398 37.8478C9.84289 37.8478 9.93859 37.8498 10.0011 37.8537C10.1613 38.0217 10.4015 38.4963 10.7218 39.2775C11.0421 40.0549 11.4386 41.2014 11.9113 42.717C12.7511 40.2756 13.1905 38.8596 13.2296 38.4689C13.2413 38.3713 13.2472 38.2619 13.2472 38.1408C13.2472 38.0158 13.2101 37.8967 13.1359 37.7834C13.1359 37.7482 13.1925 37.715 13.3058 37.6838C13.4191 37.6486 13.5343 37.631 13.6515 37.631ZM17.1936 41.4689C17.3108 42.0471 17.5608 42.5139 17.9436 42.8693C18.3264 43.2248 18.7737 43.4025 19.2854 43.4025C19.7971 43.4025 20.3127 43.1818 20.8323 42.7404C21.0276 42.8693 21.1467 43.0217 21.1897 43.1974C20.8303 43.6154 20.2991 43.9142 19.5959 44.0939C19.3108 44.1682 18.9807 44.2053 18.6057 44.2053C18.2346 44.2053 17.8498 44.1369 17.4514 44.0002C17.053 43.8674 16.6955 43.6721 16.3791 43.4142C16.0666 43.1564 15.8186 42.8185 15.635 42.4006C15.4514 41.9787 15.3596 41.5119 15.3596 41.0002C15.3596 40.4885 15.4534 40.0256 15.6409 39.6115C15.8284 39.1935 16.0764 38.8517 16.385 38.5861C17.0295 38.0275 17.7678 37.7482 18.5998 37.7482C19.3303 37.7482 19.9631 37.9455 20.4983 38.34C20.7561 38.5353 20.9612 38.7892 21.1135 39.1017C21.2698 39.4103 21.3479 39.7599 21.3479 40.1506C21.3479 40.8185 21.1272 41.1701 20.6858 41.2053L17.1936 41.4689ZM19.7717 39.9748C19.7717 39.5099 19.6428 39.1467 19.385 38.8849C19.1272 38.6232 18.7893 38.4924 18.3713 38.4924C17.9534 38.4924 17.637 38.6896 17.4221 39.0842C17.2073 39.4748 17.0998 40.0178 17.0998 40.7131C18.0725 40.6076 18.9514 40.4963 19.7366 40.3791C19.76 40.2385 19.7717 40.1037 19.7717 39.9748ZM27.0638 42.7287L27.1224 40.4963C27.1224 39.9885 27.1048 39.6682 27.0697 39.5353C27.0384 39.4025 26.9974 39.3029 26.9466 39.2365C26.8373 39.0998 26.6771 39.0314 26.4662 39.0314C26.2552 39.0314 26.0755 39.0549 25.9271 39.1017C25.6224 39.2033 25.2318 39.4885 24.7552 39.9572C24.7552 40.465 24.7435 41.8166 24.7201 44.0119C24.2865 44.0861 23.9252 44.1232 23.6361 44.1232C23.347 44.1232 23.1029 44.0861 22.9037 44.0119C22.974 43.0627 23.0091 42.1877 23.0091 41.3869C23.0091 40.5822 22.9994 39.8889 22.9798 39.3068C22.9798 39.0099 22.8744 38.8342 22.6634 38.7795C22.5306 38.7365 22.3431 38.7053 22.1009 38.6857C22.0775 38.5842 22.0658 38.5041 22.0658 38.4455C22.0658 38.383 22.0736 38.3264 22.0892 38.2756C22.6517 37.9592 23.3509 37.801 24.1869 37.801C24.3236 37.801 24.4252 37.8029 24.4916 37.8068C24.6439 38.0685 24.7279 38.5178 24.7435 39.1545C25.474 38.217 26.3295 37.7482 27.3099 37.7482C27.763 37.7482 28.1166 37.9025 28.3705 38.2111C28.6283 38.5158 28.7748 38.9299 28.8099 39.4533C28.8255 39.6916 28.8334 39.9299 28.8334 40.1682C28.8334 40.4064 28.8216 40.6642 28.7982 40.9416C28.7318 41.7853 28.6986 42.4318 28.6986 42.881C28.6986 42.9826 28.7709 43.0607 28.9154 43.1154C29.0599 43.1701 29.2005 43.1974 29.3373 43.1974C29.4779 43.1974 29.5736 43.1896 29.6244 43.174C29.6712 43.2795 29.6947 43.3771 29.6947 43.467C29.6947 43.5529 29.6908 43.6115 29.683 43.6428C28.9525 44.0217 28.4076 44.2111 28.0482 44.2111C27.6888 44.2111 27.4349 44.09 27.2865 43.8478C27.138 43.6017 27.0638 43.2287 27.0638 42.7287ZM33.9458 42.8224C34.0864 42.9514 34.1665 43.0842 34.186 43.2209C33.6704 43.8771 33.0747 44.2053 32.3989 44.2053C31.9575 44.2053 31.645 44.0295 31.4614 43.6779C31.3052 43.3693 31.2095 42.84 31.1743 42.09C31.143 40.9182 31.1274 39.8264 31.1274 38.8146C30.729 38.799 30.4848 38.7795 30.395 38.756C30.3755 38.7248 30.3657 38.6096 30.3657 38.4103C30.3657 38.2111 30.3755 38.1017 30.395 38.0822L31.1391 38.0119C31.1391 37.9299 31.1509 37.5373 31.1743 36.8342C31.3696 36.6349 31.6548 36.4826 32.0298 36.3771C32.4087 36.2678 32.7446 36.2131 33.0376 36.2131C32.9829 36.7092 32.938 37.3088 32.9028 38.0119C33.0317 38.0158 33.4204 38.0392 34.0688 38.0822C34.0884 38.1486 34.0981 38.2756 34.0981 38.4631C34.0981 38.6506 34.0884 38.7639 34.0688 38.8029C33.7095 38.8498 33.3091 38.8791 32.8677 38.8908C32.852 39.3557 32.8442 39.9435 32.8442 40.6545C32.8442 41.3615 32.8598 42.0295 32.8911 42.6584C32.9028 42.9006 33.0239 43.0217 33.2544 43.0217C33.4888 43.0217 33.7192 42.9553 33.9458 42.8224ZM41.8297 40.8127C41.8297 41.3244 41.7379 41.8049 41.5543 42.2541C41.3707 42.7033 41.1109 43.0705 40.775 43.3557C40.0992 43.9299 39.2066 44.217 38.0973 44.217C37.5426 44.217 37.0309 44.0861 36.5621 43.8244C36.0934 43.5627 35.7203 43.1974 35.443 42.7287C35.1656 42.256 35.027 41.6935 35.027 41.0412C35.027 40.3849 35.1949 39.7951 35.5309 39.2717C36.191 38.2404 37.2984 37.7248 38.8531 37.7248C39.6344 37.7248 40.3199 37.9924 40.9098 38.5275C41.523 39.0861 41.8297 39.8478 41.8297 40.8127ZM36.7555 40.9826C36.7555 41.6506 36.9488 42.2346 37.3355 42.7346C37.7223 43.2346 38.1754 43.4846 38.6949 43.4846C39.6559 43.4846 40.1363 42.7014 40.1363 41.1349C40.1363 40.3576 39.9586 39.7267 39.6031 39.2424C39.2477 38.758 38.7945 38.5158 38.2438 38.5158C37.9664 38.5158 37.7262 38.5861 37.523 38.7267C37.3199 38.8674 37.1656 39.0568 37.0602 39.2951C36.857 39.7521 36.7555 40.3146 36.7555 40.9826ZM47.0827 40.0685C47.0827 39.4006 46.9304 39.0666 46.6257 39.0666C46.403 39.0666 46.1902 39.131 45.987 39.2599C45.7839 39.3849 45.5652 39.5607 45.3308 39.7873C45.3308 40.1779 45.3191 41.5861 45.2956 44.0119C44.862 44.0861 44.5066 44.1232 44.2292 44.1232C43.9558 44.1232 43.7195 44.0861 43.5202 44.0119C43.5671 43.3635 43.5905 42.2521 43.5905 40.6779V39.3068C43.5905 39.0099 43.487 38.8342 43.28 38.7795C43.1394 38.7365 42.9499 38.7053 42.7116 38.6857C42.6843 38.5685 42.6706 38.4807 42.6706 38.4221C42.6706 38.3596 42.6726 38.3107 42.6765 38.2756C43.239 37.9592 43.9343 37.801 44.7624 37.801C44.8991 37.801 45.0007 37.8029 45.0671 37.8068C45.1804 38.0021 45.2468 38.2053 45.2663 38.4162C45.2898 38.6271 45.3073 38.8283 45.3191 39.0197C45.8425 38.383 46.2839 37.9963 46.6433 37.8596C46.8152 37.7932 46.9968 37.7599 47.1882 37.7599C47.5788 37.7599 47.8913 37.8693 48.1257 38.0881C48.364 38.3029 48.4831 38.6193 48.4831 39.0373C48.4831 39.3576 48.3659 39.6252 48.1316 39.84C47.9011 40.051 47.6218 40.1564 47.2937 40.1564C47.2234 40.1564 47.153 40.1506 47.0827 40.1389V40.0685ZM49.951 45.6584C49.994 45.8185 50.0682 45.9611 50.1737 46.0861C50.283 46.215 50.4159 46.2795 50.5721 46.2795C50.826 46.2795 51.0623 46.1115 51.2811 45.7756C51.4998 45.4435 51.6873 44.9748 51.8436 44.3693C51.7655 44.1467 51.5467 43.6447 51.1873 42.8635C50.8319 42.0822 50.412 41.2502 49.9276 40.3674C49.3846 39.383 48.9862 38.8478 48.7323 38.7619C48.6737 38.7424 48.6092 38.7307 48.5389 38.7267C48.4725 38.7228 48.4139 38.7189 48.3631 38.715C48.3084 38.7111 48.2733 38.7092 48.2577 38.7092C48.2303 38.5178 48.2166 38.4103 48.2166 38.3869C48.2166 38.3596 48.2186 38.3303 48.2225 38.299C48.8514 37.9474 49.4373 37.7717 49.9803 37.7717C50.2108 37.7717 50.4334 37.8166 50.6483 37.9064C50.8631 37.9963 51.1424 38.4533 51.4862 39.2775C51.8338 40.0978 52.2264 41.3088 52.6639 42.9103C53.1756 41.1838 53.5741 39.7834 53.8592 38.7092C53.9412 38.3967 54.0858 38.1603 54.2928 38.0002C54.5037 37.84 54.7088 37.7599 54.908 37.7599C55.4862 37.7599 55.8534 37.9846 56.0096 38.4338C55.9627 38.4338 55.869 38.508 55.7284 38.6564C55.5916 38.801 55.4412 39.0002 55.2772 39.2541C55.1131 39.5041 54.9315 39.8439 54.7323 40.2736C54.537 40.7033 54.3553 41.1447 54.1873 41.5978C54.0233 42.051 53.8436 42.5353 53.6483 43.051C53.453 43.5627 53.2635 44.051 53.0799 44.5158C52.9002 44.9846 52.6991 45.4357 52.4764 45.8693C52.2537 46.3029 52.0311 46.676 51.8084 46.9885C51.5858 47.3049 51.3358 47.5568 51.0584 47.7443C50.7811 47.9357 50.5116 48.0314 50.2498 48.0314C49.992 48.0314 49.7772 47.9943 49.6053 47.9201C49.4373 47.8498 49.3065 47.7541 49.2127 47.633C49.033 47.3869 48.9432 47.1193 48.9432 46.8303C48.9432 46.5451 49.0389 46.2951 49.2303 46.0803C49.4256 45.8654 49.6659 45.7248 49.951 45.6584Z" fill="url(#paint1_linear_2964_6630)"/>
</g>
<defs>
<linearGradient id="paint0_linear_2964_6630" x1="17.5844" y1="3.53361" x2="38.6541" y2="3.53361" gradientUnits="userSpaceOnUse">
<stop stop-color="#6966EB"/>
<stop offset="0.204" stop-color="#5F5DD6"/>
<stop offset="1" stop-color="#3B3A85"/>
</linearGradient>
<linearGradient id="paint1_linear_2964_6630" x1="0.5" y1="40.5002" x2="56.5" y2="40.5002" gradientUnits="userSpaceOnUse">
<stop stop-color="#5E5BD3"/>
<stop offset="1" stop-color="#00113D"/>
</linearGradient>
<clipPath id="clip0_2964_6630">
<rect width="56" height="48" fill="white" transform="translate(0.5)"/>
</clipPath>
</defs>
</svg>
